Patient4_TMGait_0pt7_02_left_15_EMG.mot
version=1
nRows=23
nColumns=33
inDegrees=no
endheader
time	1LAddLong	2LGlutMax	3LGlutMed	4LIliopsoas	5LSemiMemb	6LBicFemLong	7LRecFem	8LVastMed	9LVastLat	10LGasMed	11LTibAnt	12lTibPost	13LPeroneusLong	14LSol	15LExtDigLong	16LFlexDigLong	17RAddLong	18RGlutMax	19RGlutMed	20RIliopsoas	21RSemiMemb	22RBicFemLong	23RRecFem	24RVastMed	25RVastLat	26RGasMed	27RTibAnt	28RTibPost	29RPeroneusLong	30RSol	31RExtDigLong	32RFlexDigLong
16.84	0.059814	-0.31204	-0.074158	0.026245	-0.050964	-0.090332	-0.16281	0.0177	0.31174	-0.02533	0.014191	-0.000305	0.12756	-0.16571	0.2327	0.002136	0.007324	-0.77072	-0.27084	-0.092773	-0.00412	-0.01297	0.22003	-0.11795	-0.065613	0.027924	-0.27084	-0.016327	-0.17075	-0.15762	-0.002136	-0.005188
16.841	0.052643	-0.26489	-0.095673	0.044708	-0.029755	-0.11734	-0.16357	0.011749	0.31723	-0.040131	-0.013885	0.002899	0.045013	0.001068	0.45959	-0.005341	-0.001526	-0.80872	-0.34714	-0.16541	0.005188	0.060577	0.1236	-0.035858	0.019379	0.025482	0.25909	0.002136	-0.42648	-0.33127	-0.000763	0.001221
16.842	0.052032	-0.19211	-0.12619	-0.017395	0.013275	-0.13046	-0.1799	0.008087	0.31525	0.003967	-0.047913	-0.002747	0.044556	0.18021	0.22369	-0.01709	-0.001678	-0.8168	-0.62714	-0.097046	0.008087	0.064392	0.071564	0.011597	0.15518	0.029907	0.3862	0.001373	-0.88791	-0.33585	-0.002747	0.005188
16.843	0.032349	-0.16434	-0.097656	-0.055237	0.03418	-0.11414	-0.18326	0.009918	0.30182	-0.003052	0.10193	0.000916	0.067139	0.18387	0.046234	-0.079956	0.002441	-0.737	-0.44678	0.020447	0.003052	0.023804	-0.177	0.12466	0.29159	0.030518	-0.023956	-0.001221	-0.98251	-0.20752	-0.002441	0.00061
16.844	0.000763	-0.11505	-0.022583	-0.010376	0.04303	-0.056915	-0.18265	0.003967	0.30579	0.063782	0.14358	-0.006866	0.018768	0.057983	-0.13702	-0.48553	0.011292	-0.70236	-0.34363	0.22537	-0.010529	0.002136	-0.33997	0.10483	0.39261	0.016937	-0.040894	0.000153	-0.31281	-0.15396	-0.006104	0.003052
16.845	-0.001831	-0.029907	0.014343	-0.008545	0.020599	-0.047302	-0.19745	0.011444	0.2945	0.11276	0.006409	-0.001984	0.022278	-0.1149	-0.2681	0.033722	0.025177	-0.75424	-0.3125	0.44907	-0.018005	-0.019836	-0.20935	0.050964	0.3598	0.008545	0.37598	-0.002441	0.86868	-0.21164	-0.001221	0.003204
16.846	-0.007019	0.022736	0.024109	-0.003357	0.013428	-0.013733	-0.20294	0.019684	0.28686	0.076599	-0.13306	0.007629	0.076904	-0.15488	-0.23804	0.15243	0.021362	-0.70358	-0.20599	0.16541	-0.027161	-0.029755	-0.28519	0.04837	0.084229	-0.001831	0.18585	0.004425	1.555	-0.21042	-0.000458	-0.002899
16.847	-0.012817	0.088348	0.009613	0.017395	0.022125	-0.015259	-0.16022	0.014496	0.29022	-0.000916	-0.08728	0.000458	0.055695	-0.14496	-0.071564	0.34424	0.037079	-0.70877	-0.3862	-0.009766	-0.036316	-0.052795	-0.048828	-0.031891	-0.14618	0.001373	-0.88699	-0.007477	1.4328	-0.18494	-0.001678	0.003357
16.848	0.000305	0.10193	-0.037079	0.00824	0.00824	0.030212	-0.13947	0.014038	0.27756	-0.045013	-0.057983	0.008392	0.007324	-0.1683	0.073395	-0.082397	0.035553	-0.69061	-0.31784	0.068054	-0.039368	-0.018921	0.059814	-0.067291	-0.16953	-0.001678	-0.56961	-0.00351	1.0512	-0.23178	-0.00061	-0.006561
16.849	-0.015869	0.16083	-0.010376	-0.001068	0.010529	0.048218	-0.12619	0.019379	0.2652	-0.057678	0.018921	0.002289	0.019379	-0.21194	0.4892	0.10559	0.011597	-0.65872	-0.16007	0.12482	-0.023651	-0.032196	0.04776	0.002747	-0.005493	-0.01358	0.30579	-0.006714	0.28336	-0.25528	-0.000153	-0.004425
16.85	-0.023499	0.20813	-0.00885	-0.005035	-0.016632	0.020294	-0.12665	0.012665	0.27313	-0.016937	0.098114	-0.006409	0.037994	-0.099487	-0.051575	0.29541	0.010681	-0.63889	-0.2063	0.2002	-0.020599	0.003052	0.14542	-0.025024	-0.045624	0.001678	0.15182	-0.002899	0.18631	-0.17441	-0.000305	-0.003204
16.851	-0.010223	0.28961	0.056305	0.025787	-0.039215	-0.00351	-0.13168	0.020599	0.27237	0.007629	0.061646	0.014038	-0.002747	0.032959	-0.050354	0.10208	0.022888	-0.65857	0.10712	0.065918	-0.0177	0.015106	0.42893	-0.083923	-0.29068	0.012054	-0.61935	0	0.22339	-0.22522	-0.001526	-0.004883
16.852	-0.003204	0.35355	0.050659	0.035858	-0.012817	-0.013428	-0.1236	0.026093	0.26016	0	0.035553	-0.014191	0.020599	0.057678	-0.091553	-0.045471	0.02243	-0.65918	-0.039215	-0.057678	-0.020599	0.015869	0.43472	-0.018158	-0.20844	0.004425	-1.1395	-0.00824	0.13611	0.051422	-0.001373	-0.013123
16.853	0.006561	0.41443	0.016785	0.032959	0.011597	0.001221	-0.11734	0.018158	0.25497	0.00412	-0.002899	-0.007782	-0.010529	0.000916	-0.053711	-0.26489	0.015411	-0.63339	-0.13611	-0.11444	-0.00824	-0.011292	0.29862	-0.070038	0.029602	-0.009766	-0.40405	-0.004578	-0.21622	0.09903	0.001068	-0.016937
16.854	0.005951	0.47562	-0.001221	0.032349	0.017548	0.014191	-0.10483	0.015869	0.26077	-0.023499	-0.048218	0.005798	-0.022888	-0.087585	0.16007	-0.23697	0.019073	-0.57144	0.49896	-0.11993	-0.004578	0.005341	-0.020142	-0.29007	0.02655	-0.012665	-0.15778	-0.003815	0.47623	0.22964	-0.005646	-0.015259
16.855	0.010681	0.50552	0.002289	0.009155	0.008392	0.028839	-0.10773	0.015717	0.2536	-0.08728	-0.024261	0.006561	-0.036316	-0.066376	0.036926	0.20905	0.019226	-0.56992	0.62485	-0.052032	-0.007172	0.001984	-0.21057	-0.38696	-0.10513	-0.00885	0.23315	-0.007019	0.28564	0.24399	-0.001831	-0.014343
16.856	0.005646	0.513	-0.000153	0.009918	0.009918	0.04303	-0.11002	0.010223	0.24872	-0.11322	0.02533	-0.006866	-0.037384	0.018158	0.057983	0.061951	0.014343	-0.58563	0.27817	0.066833	-0.012665	-0.004272	-0.17166	-0.1265	0.04425	-0.004578	0.55573	-0.001526	-1.0207	-0.00473	-0.004578	-0.011902
16.857	0.014648	0.513	0.008698	-0.002441	0.006104	0.020599	-0.10437	0.021515	0.24857	-0.090179	0.10727	0.002594	-0.039368	0.040283	0.0354	-0.02121	-0.004883	-0.56397	-0.18967	0.036316	0.001221	0.011597	-0.1831	0.15732	0.10498	-0.014801	0.17151	-0.006256	-0.62714	-0.007477	-0.003662	-0.011139
16.858	0.018616	0.50858	-0.021973	-0.002747	-0.033875	0.02655	-0.094757	0.01358	0.23438	-0.058899	0.036469	-0.00885	-0.031738	-0.00473	-0.05127	-0.032959	0.008087	-0.55496	-0.24582	-0.033569	-0.004425	0.002747	-0.33188	0.2504	0.10696	-0.012207	-0.052643	-0.001221	0.20615	0.056763	-0.001678	-0.006104
16.859	0.013733	0.51346	-0.063019	0.000305	-0.02594	0.024567	-0.098419	0.025635	0.23331	-0.037537	-0.044098	-0.027924	0.045166	-0.052948	-0.17838	-0.033264	0.011597	-0.54596	0.12238	-0.001678	-0.018311	-0.012817	-0.63187	0.38269	0.18387	0.010834	-0.26627	-0.008545	-0.03891	0.071259	-0.003052	0.007935
16.86	0.019531	0.52506	-0.037689	0.000305	-0.025787	0.010681	-0.087433	0.019073	0.23499	-0.005951	-0.03006	0.005341	0.030518	-0.11383	-0.041199	-0.042419	0.015411	-0.51651	-0.12772	0.034027	-0.014954	-0.016174	-0.29968	0.51132	0.14297	0.010681	-0.43884	-0.009003	-0.002747	0.10635	0.000153	-0.000153
16.861	0.030823	0.50888	-0.007782	-0.014954	-0.046692	-0.009003	-0.088348	0.016632	0.22675	0.000916	-0.030212	-0.032196	0.027008	-0.12299	-0.029602	-0.022736	0.027618	-0.44357	-0.15289	-0.038452	-0.028534	-0.024719	0.016479	0.4277	0.12589	-0.002289	-0.043488	-0.003204	0.068054	0.14633	0.001831	-0.003662
16.862	0.020447	0.49057	-0.00061	-0.011139	0.028381	-0.037079	-0.087738	0.007477	0.21774	-0.005493	-0.052032	0.009918	0.064545	-0.077057	-0.014648	-0.016022	0.048218	-0.4953	-0.083771	-0.027771	-0.042267	-0.057068	0.25909	0.25711	0.15366	-0.011292	0.13626	-0.005798	0.042877	0.14343	-0.002594	-0.005188
